<?xml version="1.0" encoding="UTF-8"?>
<svg id="Layer_2" data-name="Layer 2" xmlns="http://www.w3.org/2000/svg" viewBox="0 0 312.82 57.59">
  <defs>
    <style>
      .cls-1 {
        fill: #cb2b35;
      }

      .cls-1, .cls-2, .cls-3, .cls-4, .cls-5 {
        stroke-width: 0px;
      }

      .cls-2 {
        fill: #1a939c;
      }

      .cls-3 {
        fill: #191c1c;
      }

      .cls-4 {
        fill: #231f20;
      }

      .cls-5 {
        fill: #0e163b;
      }
    </style>
  </defs>
  <g id="Layer_1-2" data-name="Layer 1">
    <g>
      <path class="cls-2" d="M16.43,9.56s-.08,0-.13,0-.08,0-.13,0C7.3,9.51.05,16.67,0,25.55c-.05,8.88,7.11,16.13,15.99,16.18.06,0,.13,0,.19,0,.04,0,.08,0,.13,0s.08,0,.13,0c8.88-.05,16.04-7.3,15.99-16.18-.05-8.81-7.18-15.94-15.99-15.99ZM3.8,25.65c0-6.09,4.34-11.31,10.32-12.42,6.86-1.14,13.35,3.51,14.48,10.37,1.14,6.86-3.51,13.35-10.37,14.48-.68.11-1.37.17-2.06.17-.69,0-1.38-.06-2.06-.17-5.98-1.12-10.32-6.34-10.32-12.42ZM23.17,19.98h0c0,.9-.73,1.63-1.63,1.63h-10.67c-.9,0-1.63-.73-1.63-1.63h0c0-.9.73-1.63,1.63-1.63h10.67c.9,0,1.63.73,1.63,1.63ZM23.17,25.65h0c0,.88-.72,1.6-1.6,1.6h-10.72c-.88,0-1.6-.72-1.6-1.6h0c0-.88.72-1.6,1.6-1.6h10.72c.88,0,1.6.72,1.6,1.6ZM18.64,31.24h0c0,.88-.72,1.6-1.6,1.6h-6.2c-.88,0-1.6-.72-1.6-1.6h0c0-.88.72-1.6,1.6-1.6h6.2c.88,0,1.6.72,1.6,1.6ZM39.47,25.65c0,4.55,3.79,7.73,8.53,7.73s8.56-3.19,8.56-7.73-3.79-7.73-8.56-7.73c-4.74,0-8.53,3.21-8.53,7.73ZM43.38,25.65c0-2.72,2.11-4.6,4.62-4.6s4.65,1.88,4.65,4.6-2.11,4.6-4.65,4.6c-2.51,0-4.62-1.85-4.62-4.6ZM57.37,33.03h4.31l2.69-4.11c.21-.32.46-.78.46-.78h.06c.12.27.26.53.43.78l2.72,4.11h4.31l-5.11-7.47,2.6-3.68c.31-.43.55-.49,1.19-.49h1.1v-3.13h-2.69c-1.32,0-1.83.26-2.54,1.39l-1.53,2.43c-.21.38-.49.96-.49.96h-.06s-.28-.58-.49-.96l-1.53-2.43c-.7-1.13-1.25-1.39-2.54-1.39h-2.72v3.13h1.13c.64,0,.89.06,1.19.49l2.57,3.68-5.08,7.47ZM75.68,27.76c0,4.02,2.05,5.62,5.38,5.62,2.69,0,4.65-1.53,5.38-3.07h.06s-.03.32-.03.67v.41c0,1.04.7,1.65,2.05,1.65h3.58v-3.1h-1.22c-.43,0-.67-.23-.67-.64v-11.03h-3.88v6.78c0,2.64-1.56,4.98-4.37,4.98-1.93,0-2.42-1.22-2.42-3.01v-6.8c0-1.33-.61-1.94-2.05-1.94h-3.7v3.13h1.22c.43,0,.67.2.67.64v5.73ZM94.88,33.03h3.76v-3.68h-3.76v3.68ZM101.82,28.77c0,2.95,2.54,4.6,5.32,4.6,3.52,0,4.71-2.61,4.71-2.61h.06c-.02.21-.03.42-.03.64,0,.87.55,1.62,1.99,1.62h3.49v-3.1h-1.22c-.43,0-.67-.23-.67-.64v-5.5c0-3.3-1.53-5.88-6.73-5.88-1.62,0-5.72.29-5.72,3.04v1.56h3.61v-.78c0-.81,1.38-.98,2.08-.98,1.99,0,2.87.78,2.87,2.9v.12h-.49c-2.54,0-9.27.38-9.27,5.01h0ZM105.74,28.6c0-2.06,3.21-2.32,5.23-2.32h.67v.35c0,1.8-1.47,3.88-3.55,3.88-1.59,0-2.36-.93-2.36-1.91h0ZM118.76,33.03h12.11c1.44,0,2.05-.58,2.05-1.97v-2.61h-3.52v.81c0,.43-.24.64-.67.64h-3.43c-1.01,0-1.47.09-1.47.09v-.06c.46-.43.9-.88,1.31-1.36l7.19-8.31v-2h-11.44c-1.47,0-2.08.61-2.08,1.97v2.64h3.52v-.84c0-.41.24-.64.67-.64h2.81c.48,0,.96-.01,1.44-.06v.06c-.47.42-.91.87-1.32,1.36l-7.19,8.31v1.97Z"/>
      <path class="cls-3" d="M149.41,57.59c-.61,0-1.1-.49-1.1-1.1V1.1c0-.61.49-1.1,1.1-1.1s1.1.49,1.1,1.1v55.39c0,.61-.49,1.1-1.1,1.1Z"/>
      <g>
        <path class="cls-5" d="M179.35,24.52c-1.77,1.47-4.01,2.26-6.31,2.22-4.06,0-7.34-3.29-7.34-7.34s3.29-7.34,7.34-7.34c2.69,0,4.57.8,5.73,1.95l-2.53,2s-.78-1.08-3.09-1.08-4.09,2.14-4.09,4.37,1.3,4.62,4.29,4.62c1.06,0,2.1-.32,2.99-.9v-1.99h-3.2v-2.71h6.23v6.22h0Z"/>
        <path class="cls-5" d="M183.78,23.64v-11.3h-3.09v14.1h10.19v-2.8h-7.1Z"/>
        <path class="cls-5" d="M237.89,23.64v-11.3h-3.09v14.1h10.19v-2.8h-7.1Z"/>
        <path class="cls-5" d="M198.45,12.05c-4.18,0-7.57,3.16-7.57,7.33s3.39,7.33,7.57,7.33,7.57-3.16,7.57-7.33-3.39-7.33-7.57-7.33ZM198.4,23.86c-2.42-.07-4.34-2.05-4.34-4.47-.04-2.39,1.87-4.37,4.26-4.41,2.39-.04,4.37,1.87,4.41,4.26,0,.05,0,.1,0,.15.01,2.42-1.92,4.41-4.34,4.47h0Z"/>
        <path class="cls-5" d="M216.36,19.18c1.78-.94,2.46-3.13,1.52-4.91-.63-1.2-1.87-1.94-3.22-1.94h-7.59v14.1h7.59c2.08,0,4.45-1.32,4.45-3.76,0-2.18-1.16-3.2-2.75-3.5ZM210.14,15.04h3.65c.83,0,1.51.67,1.51,1.51s-.67,1.51-1.51,1.51h-3.65v-3.01ZM214.52,23.73h-4.39v-3.08h4.39c.85,0,1.54.69,1.54,1.54s-.69,1.54-1.54,1.54Z"/>
        <path class="cls-5" d="M230.79,26.44h3.05l-6.02-14.25h-2.87l-6.02,14.24h3.05l1.32-3.13h6.17l1.33,3.14ZM224.45,20.54l1.92-4.54,1.92,4.55h-3.85Z"/>
        <path class="cls-5" d="M278.65,13.7v-1.42h-9.03v14.16h9.04v-1.33h-7.61v-5.06h6.74v-1.42h-6.74v-4.94h7.6Z"/>
        <path class="cls-5" d="M285.71,26.54h-4.14v-14.26h4.14c4,0,6.9,3,6.9,7.13s-2.9,7.14-6.9,7.14ZM283,25.11h2.71c3.22,0,5.48-2.35,5.48-5.71s-2.3-5.71-5.48-5.71h-2.71v11.41Z"/>
        <path class="cls-5" d="M297.42,12.34h-1.6v14.11h1.61v-14.11Z"/>
        <path class="cls-5" d="M264.39,12.28l-4.66,7.61-4.57-7.61h-1.51v14.16h1.43v-11.53l4.64,7.73,4.76-7.77v11.58h1.43v-14.17h-1.53Z"/>
        <path class="cls-5" d="M301.52,26.54l1.49-3.75h6.8l1.48,3.75h1.53l-5.6-14.25h-1.57l-5.66,14.25h1.53ZM306.43,14.17l2.82,7.17h-5.67l2.85-7.17Z"/>
        <path class="cls-5" d="M212.69,45.54c-3.88,0-6.49-2.93-6.49-7.27s2.61-7.27,6.49-7.27c1.9,0,3.07.32,4.45,1.59l-.97,1.04c-1.11-1.02-1.95-1.21-3.49-1.21-3.74,0-5.07,3.15-5.07,5.84s1.32,5.84,5.07,5.84c1.2,0,2.38-.35,3.38-1.02v-4h-3.79v-1.42h5.21v6.15l-.29.22c-1.3.98-2.88,1.51-4.51,1.51Z"/>
        <path class="cls-5" d="M239.69,45.54c-3.63,0-6.26-3.08-6.26-7.32s2.57-7.32,6.26-7.32,6.26,3.08,6.26,7.32-2.58,7.32-6.26,7.32ZM239.69,32.32c-3.34,0-4.84,2.96-4.84,5.9,0,3.42,2.03,5.9,4.84,5.9s4.84-2.42,4.84-5.9-1.99-5.9-4.84-5.9Z"/>
        <path class="cls-5" d="M264.44,45.22h-1.42v-14.06h4.98c2.5-.02,4.54,1.98,4.57,4.48.02,2.5-1.98,4.54-4.48,4.57-.03,0-.06,0-.09,0h-3.55v5.02h-.01ZM264.44,38.78h3.55c1.71,0,3.1-1.39,3.1-3.1s-1.39-3.1-3.1-3.1h-3.55v6.21Z"/>
        <path class="cls-5" d="M231.22,45.22l-3.82-5.61c2-.37,3.5-2.13,3.48-4.23-.02-2.36-1.95-4.25-4.31-4.22h-5.7v14.06h1.42v-5.53h3.44l3.76,5.53h1.72ZM222.3,32.58h4.28c1.57,0,2.85,1.28,2.85,2.85s-1.28,2.85-2.85,2.85h-4.28v-5.7Z"/>
      </g>
      <path class="cls-1" d="M253.52,45.5c-2.65-.4-4.6-2.71-4.57-5.39V8.5c0-.79.64-1.42,1.43-1.42v33.04c-.03,2.02,1.46,3.73,3.46,3.98,2.11.21,3.99-1.34,4.2-3.45.01-.12.02-.24.02-.36v-9.02h1.41v9.02c0,2.91-2.38,5.27-5.29,5.26-.22,0-.44-.02-.66-.04Z"/>
      <path class="cls-4" d="M1.88,49.82l-.51.1.36.39.27.37-.25.19-.27-.37-.26-.47-.26.47-.27.37-.25-.19.27-.37.36-.39-.52-.1-.46-.15.1-.29.46.15.49.22-.06-.53v-.44h.31v.44l-.06.53.49-.22.46-.15.1.29-.46.15ZM5.46,52.48c-.1,0-.21.01-.32.01-.29,0-.53-.05-.73-.14-.19-.09-.34-.24-.44-.43s-.15-.45-.15-.77c0-.33.05-.6.15-.8.1-.2.26-.35.46-.44s.46-.13.76-.13c.13,0,.26,0,.39.02.13.02.26.04.4.08v-.57c-.14-.03-.28-.06-.42-.08-.14-.02-.28-.03-.43-.03-.43,0-.79.07-1.1.21-.3.14-.53.35-.69.64-.16.29-.24.65-.24,1.09s.08.8.23,1.08c.16.28.39.49.69.63.31.14.69.2,1.15.2.15,0,.29,0,.44-.02.15-.01.3-.03.46-.06v-1.79h-.64v1.29ZM7.48,49.26h-.68v3.75h2.45v-.57h-1.77v-3.18ZM12.58,50.05c.14.29.21.65.21,1.09s-.07.8-.21,1.09c-.14.28-.34.5-.59.63-.25.14-.55.21-.89.21s-.64-.07-.89-.21c-.25-.14-.45-.35-.59-.63-.14-.28-.21-.65-.21-1.09s.07-.8.21-1.09c.14-.28.34-.49.59-.63.25-.14.55-.21.89-.21s.64.07.89.21c.25.14.45.35.59.63ZM12.09,51.15c0-.34-.04-.61-.12-.81-.08-.2-.2-.35-.35-.44-.15-.09-.33-.14-.53-.14s-.38.04-.53.13c-.15.09-.27.23-.35.43-.08.2-.12.46-.12.79s.04.61.12.81c.08.2.2.35.35.44.15.09.33.13.53.13s.38-.04.53-.13c.15-.09.26-.23.34-.43s.12-.46.12-.79ZM15.98,51.35c.14.15.21.36.21.63,0,.17-.03.33-.1.46-.06.13-.17.25-.31.34-.14.09-.32.16-.55.21-.23.05-.5.07-.83.07-.1,0-.21,0-.33,0-.12,0-.23-.01-.35-.02s-.23-.02-.34-.04v-3.65c.11-.02.23-.04.36-.06.12-.02.25-.03.39-.04.13,0,.27-.01.4-.01.36,0,.65.04.88.11.23.08.4.19.5.34.11.15.16.34.16.57,0,.14-.03.27-.08.39-.05.12-.13.22-.24.3-.09.07-.21.11-.35.14.24.04.42.13.56.27ZM14.06,50.83h.61c.19,0,.34-.02.45-.06.11-.04.2-.1.25-.18.05-.08.08-.19.08-.31,0-.2-.06-.34-.19-.43-.12-.09-.34-.13-.64-.13-.11,0-.21,0-.3.01-.09,0-.18.02-.26.03v1.07ZM15.56,51.95c0-.2-.06-.35-.19-.45-.13-.1-.34-.14-.62-.14h-.68v1.17c.09.01.18.02.26.02.08,0,.17,0,.26,0,.25,0,.44-.02.58-.07.14-.04.25-.11.31-.2.06-.09.09-.2.09-.34ZM18.63,49.26l1.26,3.75h-.67l-.35-1.08h-1.46l-.35,1.08h-.67l1.26-3.75h.98ZM18.69,51.39l-.56-1.71-.55,1.71h1.11ZM20.99,49.26h-.68v3.75h2.45v-.57h-1.77v-3.18ZM26.39,51.79l-1.14-2.53h-.82v3.75h.63v-2.78l1.03,2.25h.57l1.03-2.3v2.83h.63v-3.75h-.82l-1.12,2.53ZM29.75,51.37h1.6v-.55h-1.6v-1.01h1.85v-.55h-2.52v3.75h2.55v-.55h-1.88v-1.1ZM34.79,49.69c.34.31.5.8.5,1.45,0,.45-.08.81-.24,1.09-.16.28-.39.49-.71.62-.32.13-.71.2-1.19.2-.1,0-.21,0-.31,0-.11,0-.22-.01-.33-.02-.11,0-.22-.02-.34-.03v-3.66c.11-.02.23-.04.35-.06.13-.02.25-.03.38-.04.13,0,.26-.01.38-.01.66,0,1.16.16,1.49.47ZM34.6,51.13c0-.32-.05-.58-.14-.78-.09-.2-.23-.35-.42-.44-.19-.09-.42-.14-.7-.14-.07,0-.15,0-.24.01-.08,0-.17.02-.24.03v2.65c.08,0,.15.01.23.02.08,0,.16,0,.24,0,.28,0,.52-.05.71-.14.19-.09.33-.24.42-.43.09-.2.14-.46.14-.79ZM35.9,53.01h.68v-3.75h-.68v3.75ZM39.24,49.26l1.26,3.75h-.67l-.35-1.08h-1.46l-.35,1.08h-.67l1.26-3.75h.98ZM39.3,51.39l-.56-1.71-.55,1.71h1.11ZM44.38,52.48c-.1,0-.21.01-.32.01-.29,0-.53-.05-.73-.14-.19-.09-.34-.24-.44-.43-.1-.2-.15-.45-.15-.77,0-.33.05-.6.15-.8.1-.2.26-.35.46-.44s.46-.13.76-.13c.13,0,.26,0,.39.02.13.02.26.04.4.08v-.57c-.14-.03-.28-.06-.42-.08-.14-.02-.28-.03-.43-.03-.43,0-.79.07-1.1.21-.3.14-.53.35-.69.64-.16.29-.24.65-.24,1.09s.08.8.23,1.08c.16.28.39.49.69.63.31.14.69.2,1.15.2.15,0,.29,0,.44-.02.15-.01.3-.03.46-.06v-1.79h-.64v1.29ZM47.59,51.47l1.12,1.55h-.75l-1.03-1.45s-.06,0-.09,0c-.09,0-.16,0-.23,0s-.14,0-.21-.01v1.45h-.67v-3.68c.11-.02.22-.04.34-.06.12-.02.25-.03.37-.04.13-.01.26-.02.4-.02.52,0,.92.1,1.18.29.26.19.39.49.39.89,0,.26-.06.48-.19.65-.12.18-.3.31-.54.4-.03.01-.06.01-.09.02ZM47.55,50.9c.15-.11.22-.28.22-.51,0-.16-.03-.28-.09-.38-.06-.1-.16-.17-.28-.22-.13-.05-.29-.07-.49-.07-.1,0-.19,0-.27.01-.08,0-.16.02-.24.03v1.27c.05,0,.1,0,.15.01.05,0,.09,0,.14,0,.05,0,.1,0,.16,0,.32,0,.55-.05.7-.16ZM52.02,50.05c.14.29.21.65.21,1.09s-.07.8-.21,1.09c-.14.28-.34.5-.59.63-.25.14-.55.21-.89.21s-.64-.07-.89-.21c-.25-.14-.45-.35-.59-.63-.14-.28-.21-.65-.21-1.09s.07-.8.21-1.09c.14-.28.34-.49.59-.63.25-.14.55-.21.89-.21s.64.07.89.21c.25.14.45.35.59.63ZM51.54,51.15c0-.34-.04-.61-.12-.81-.08-.2-.2-.35-.35-.44-.15-.09-.33-.14-.53-.14s-.38.04-.53.13c-.15.09-.27.23-.35.43-.08.2-.12.46-.12.79s.04.61.12.81c.08.2.2.35.35.44.15.09.33.13.53.13s.38-.04.53-.13c.15-.09.26-.23.34-.43s.12-.46.12-.79ZM55.17,51.57c0,.32-.07.56-.2.71-.14.15-.35.22-.63.22s-.5-.07-.63-.22c-.14-.15-.21-.38-.21-.71v-2.31h-.68v2.25c0,.35.05.64.16.87.11.23.27.4.5.51s.51.17.86.17.63-.06.85-.17c.22-.11.39-.28.49-.51.11-.23.16-.52.16-.87v-2.25h-.67v2.31ZM58.85,49.54c.27.21.41.55.41,1.01,0,.43-.13.76-.4.99-.27.23-.67.34-1.21.34-.07,0-.14,0-.21,0-.06,0-.13,0-.2-.01v1.16h-.68v-3.69c.17-.03.34-.06.52-.08.18-.02.36-.03.56-.03.54,0,.94.11,1.21.32ZM58.59,50.55c0-.29-.07-.49-.22-.62-.15-.13-.37-.19-.68-.19-.09,0-.17,0-.24,0-.07,0-.15.02-.22.03v1.56c.07,0,.14.02.2.02.07,0,.14,0,.22,0,.33,0,.56-.06.71-.19.15-.13.22-.33.22-.61ZM59.68,51.85h1.59v-.55h-1.59v.55ZM63.85,49.26l1.26,3.75h-.67l-.35-1.08h-1.47l-.35,1.08h-.67l1.26-3.75h.98ZM63.91,51.39l-.56-1.71-.55,1.71h1.11ZM69.41,49.69c.34.31.5.8.5,1.45,0,.45-.08.81-.24,1.09-.16.28-.39.49-.71.62-.32.13-.71.2-1.19.2-.1,0-.21,0-.31,0-.11,0-.22-.01-.33-.02-.11,0-.22-.02-.34-.03v-3.66c.11-.02.23-.04.35-.06.13-.02.25-.03.38-.04.13,0,.26-.01.38-.01.66,0,1.16.16,1.49.47ZM69.21,51.13c0-.32-.05-.58-.14-.78-.09-.2-.23-.35-.42-.44-.19-.09-.42-.14-.7-.14-.07,0-.15,0-.24.01-.08,0-.17.02-.24.03v2.65c.08,0,.15.01.23.02.08,0,.16,0,.24,0,.28,0,.52-.05.71-.14.19-.09.33-.24.42-.43.09-.2.14-.46.14-.79ZM75.54,51.07l1.34,1.94h-.76l-.99-1.44-.99,1.44h-1.2l-.35-1.08h-1.46l-.35,1.08h-.67l1.26-3.75h.98l1.19,3.54,1.2-1.72-1.27-1.82h.76l.91,1.32.91-1.32h.74l-1.25,1.81ZM72.42,51.39l-.56-1.71-.55,1.71h1.11ZM77.55,48.25c-.14,0-.24.03-.31.08-.07.06-.11.14-.11.24s.04.18.11.23c.07.06.18.08.31.08s.24-.03.31-.08c.07-.06.11-.13.11-.23s-.04-.18-.11-.24c-.07-.06-.18-.08-.31-.08ZM77.21,53.01h.68v-3.75h-.68v3.75ZM79.31,49.26h-.68v3.75h2.45v-.57h-1.77v-3.18ZM84.09,49.69c.34.31.5.8.5,1.45,0,.45-.08.81-.24,1.09-.16.28-.39.49-.71.62-.32.13-.71.2-1.19.2-.1,0-.21,0-.31,0-.11,0-.22-.01-.33-.02-.11,0-.22-.02-.34-.03v-3.66c.11-.02.23-.04.35-.06.13-.02.25-.03.38-.04.13,0,.26-.01.38-.01.66,0,1.16.16,1.49.47ZM83.89,51.13c0-.32-.05-.58-.14-.78-.09-.2-.23-.35-.42-.44-.19-.09-.42-.14-.7-.14-.07,0-.15,0-.24.01-.08,0-.17.02-.24.03v2.65c.08,0,.15.01.23.02.08,0,.16,0,.24,0,.28,0,.52-.05.71-.14.19-.09.33-.24.42-.43.09-.2.14-.46.14-.79ZM85.53,48.25c-.14,0-.24.03-.31.08-.07.06-.11.14-.11.24s.04.18.11.23c.07.06.18.08.31.08s.24-.03.31-.08c.07-.06.11-.13.11-.23s-.04-.18-.11-.24c-.07-.06-.18-.08-.31-.08ZM85.19,53.01h.68v-3.75h-.68v3.75ZM89.6,53.01h-.75l-1.03-1.45s-.06,0-.09,0c-.09,0-.16,0-.23,0-.07,0-.14,0-.21-.01v1.45h-.67v-3.68c.11-.02.22-.04.34-.06.12-.02.25-.03.37-.04.13-.01.26-.02.4-.02.52,0,.92.1,1.18.29.26.19.39.49.39.89,0,.26-.06.48-.19.65-.12.18-.3.31-.54.4-.03.01-.06.01-.09.02l1.12,1.55ZM88.43,50.9c.15-.11.22-.28.22-.51,0-.16-.03-.28-.09-.38-.06-.1-.16-.17-.28-.22-.13-.05-.29-.07-.49-.07-.1,0-.19,0-.27.01-.08,0-.16.02-.24.03v1.27c.05,0,.1,0,.15.01.05,0,.09,0,.14,0,.05,0,.1,0,.16,0,.32,0,.55-.05.7-.16Z"/>
    </g>
  </g>
</svg>